<svg width="449" height="62" viewBox="0 0 449 62" fill="none" xmlns="http://www.w3.org/2000/svg">
<path d="M15.984 47.576C13.232 47.576 10.88 46.968 8.928 45.752C6.976 44.504 5.472 42.824 4.416 40.712C3.36 38.6 2.832 36.2 2.832 33.512C2.832 30.472 3.328 27.688 4.32 25.16C5.312 22.632 6.704 20.456 8.496 18.632C10.32 16.776 12.448 15.352 14.88 14.36C17.312 13.336 19.984 12.824 22.896 12.824C26.832 12.824 29.968 13.768 32.304 15.656C34.64 17.544 35.888 20.152 36.048 23.48H29.184C28.96 21.912 28.24 20.696 27.024 19.832C25.84 18.936 24.176 18.488 22.032 18.488C19.504 18.488 17.264 19.112 15.312 20.36C13.392 21.576 11.888 23.272 10.8 25.448C9.712 27.624 9.168 30.152 9.168 33.032C9.168 35.848 9.904 38.072 11.376 39.704C12.848 41.304 14.896 42.104 17.52 42.104C20.56 42.104 22.992 41.288 24.816 39.656C26.672 37.992 27.984 35.816 28.752 33.128H20.304L21.12 28.52H35.76L32.496 47H26.928L27.12 42.584C25.776 44.184 24.224 45.416 22.464 46.28C20.704 47.144 18.544 47.576 15.984 47.576ZM47.1525 19.64C46.0325 19.64 45.1045 19.304 44.3685 18.632C43.6645 17.928 43.3125 17.064 43.3125 16.04C43.3125 15.016 43.6645 14.168 44.3685 13.496C45.1045 12.792 46.0325 12.44 47.1525 12.44C48.2725 12.44 49.1845 12.792 49.8885 13.496C50.6245 14.168 50.9925 15.016 50.9925 16.04C50.9925 17.064 50.6245 17.928 49.8885 18.632C49.1845 19.304 48.2725 19.64 47.1525 19.64ZM38.6085 47L42.7845 23.192H48.9285L44.7525 47H38.6085ZM51.306 47L55.482 23.192H61.002L60.81 27.512C61.93 26.04 63.306 24.856 64.938 23.96C66.602 23.064 68.442 22.616 70.458 22.616L69.306 29.096H67.626C65.578 29.096 63.818 29.576 62.346 30.536C60.874 31.464 59.914 33.192 59.466 35.72L57.45 47H51.306ZM70.6174 47L76.7614 12.44H82.9054L76.7614 47H70.6174ZM93.1181 47.576C90.9421 47.576 89.0861 47.208 87.5501 46.472C86.0461 45.736 84.9101 44.728 84.1421 43.448C83.3741 42.168 83.0541 40.712 83.1821 39.08H89.3261C89.2941 40.2 89.6621 41.112 90.4301 41.816C91.1981 42.52 92.3501 42.872 93.8861 42.872C95.2301 42.872 96.2701 42.584 97.0061 42.008C97.7741 41.432 98.1581 40.696 98.1581 39.8C98.1581 39 97.7581 38.424 96.9581 38.072C96.1581 37.688 95.1341 37.352 93.8861 37.064C92.5741 36.744 91.2941 36.328 90.0461 35.816C88.7981 35.304 87.7581 34.632 86.9261 33.8C86.1261 32.968 85.7261 31.896 85.7261 30.584C85.7261 29.048 86.1741 27.688 87.0701 26.504C87.9981 25.288 89.2621 24.344 90.8621 23.672C92.4621 22.968 94.3021 22.616 96.3821 22.616C99.1981 22.616 101.422 23.288 103.054 24.632C104.686 25.976 105.47 27.8 105.406 30.104H99.5021C99.4701 29.272 99.1021 28.6 98.3981 28.088C97.7261 27.576 96.8301 27.32 95.7101 27.32C94.5581 27.32 93.6141 27.576 92.8781 28.088C92.1741 28.568 91.8221 29.176 91.8221 29.912C91.8221 30.616 92.2381 31.16 93.0701 31.544C93.9341 31.896 95.0541 32.232 96.4301 32.552C97.9341 32.904 99.2781 33.336 100.462 33.848C101.678 34.36 102.638 35.032 103.342 35.864C104.078 36.664 104.446 37.72 104.446 39.032C104.446 40.76 103.95 42.264 102.958 43.544C101.966 44.824 100.606 45.816 98.8781 46.52C97.1821 47.224 95.2621 47.576 93.1181 47.576ZM136.172 47.576C133.42 47.576 131.068 46.968 129.116 45.752C127.164 44.504 125.66 42.824 124.604 40.712C123.548 38.6 123.02 36.2 123.02 33.512C123.02 30.472 123.516 27.688 124.508 25.16C125.5 22.632 126.892 20.456 128.684 18.632C130.508 16.776 132.636 15.352 135.068 14.36C137.5 13.336 140.172 12.824 143.084 12.824C147.02 12.824 150.156 13.768 152.492 15.656C154.828 17.544 156.076 20.152 156.236 23.48H149.372C149.148 21.912 148.428 20.696 147.212 19.832C146.028 18.936 144.364 18.488 142.22 18.488C139.692 18.488 137.452 19.112 135.5 20.36C133.58 21.576 132.076 23.272 130.988 25.448C129.9 27.624 129.356 30.152 129.356 33.032C129.356 35.848 130.092 38.072 131.564 39.704C133.036 41.304 135.084 42.104 137.708 42.104C140.748 42.104 143.18 41.288 145.004 39.656C146.86 37.992 148.172 35.816 148.94 33.128H140.492L141.308 28.52H155.948L152.684 47H147.116L147.307 42.584C145.964 44.184 144.412 45.416 142.652 46.28C140.892 47.144 138.732 47.576 136.172 47.576ZM170.124 47.576C168.044 47.576 166.22 47.112 164.652 46.184C163.084 45.256 161.852 44.008 160.956 42.44C160.092 40.84 159.66 39.016 159.66 36.968C159.66 34.952 160.012 33.08 160.716 31.352C161.452 29.592 162.46 28.056 163.74 26.744C165.052 25.432 166.572 24.424 168.3 23.72C170.028 22.984 171.884 22.616 173.868 22.616C175.98 22.616 177.82 23.064 179.388 23.96C180.988 24.856 182.236 26.088 183.132 27.656C184.028 29.224 184.476 31.048 184.476 33.128C184.476 35.176 184.108 37.08 183.372 38.84C182.636 40.568 181.612 42.088 180.3 43.4C179.02 44.712 177.5 45.736 175.74 46.472C174.012 47.208 172.14 47.576 170.124 47.576ZM170.94 42.248C172.316 42.248 173.548 41.864 174.636 41.096C175.724 40.328 176.588 39.288 177.228 37.976C177.868 36.632 178.188 35.128 178.188 33.464C178.188 31.704 177.692 30.344 176.7 29.384C175.74 28.424 174.572 27.944 173.196 27.944C171.852 27.944 170.62 28.328 169.5 29.096C168.412 29.864 167.548 30.92 166.908 32.264C166.268 33.576 165.948 35.064 165.948 36.728C165.948 38.488 166.428 39.848 167.388 40.808C168.38 41.768 169.564 42.248 170.94 42.248ZM187.712 47L191.888 23.192H197.312L197.168 27.128C198.16 25.752 199.408 24.664 200.912 23.864C202.416 23.032 204.096 22.616 205.952 22.616C208.416 22.616 210.32 23.304 211.664 24.68C213.04 26.024 213.728 27.976 213.728 30.536C213.728 31.432 213.632 32.44 213.44 33.56L211.04 47H204.896L207.2 34.136C207.232 33.752 207.264 33.4 207.296 33.08C207.36 32.728 207.392 32.408 207.392 32.12C207.392 29.24 205.968 27.8 203.12 27.8C201.424 27.8 199.92 28.408 198.608 29.624C197.296 30.808 196.448 32.44 196.064 34.52L193.856 47H187.712ZM228.386 47.576C225.218 47.576 222.69 46.664 220.802 44.84C218.946 43.016 218.018 40.552 218.018 37.448C218.018 35.432 218.37 33.528 219.074 31.736C219.778 29.944 220.786 28.376 222.098 27.032C223.41 25.656 224.962 24.584 226.754 23.816C228.578 23.016 230.578 22.616 232.754 22.616C234.866 22.616 236.674 23.032 238.178 23.864C239.682 24.664 240.834 25.784 241.634 27.224C242.466 28.632 242.882 30.248 242.882 32.072C242.882 32.84 242.802 33.64 242.642 34.472C242.514 35.272 242.354 35.976 242.162 36.584H224.066C224.066 36.84 224.066 37.112 224.066 37.4C224.066 39 224.546 40.264 225.506 41.192C226.466 42.088 227.714 42.536 229.25 42.536C230.466 42.536 231.538 42.264 232.466 41.72C233.426 41.144 234.21 40.408 234.818 39.512H241.058C240.322 41.048 239.314 42.424 238.034 43.64C236.786 44.856 235.33 45.816 233.666 46.52C232.034 47.224 230.274 47.576 228.386 47.576ZM231.938 27.608C230.466 27.608 229.074 28.04 227.762 28.904C226.45 29.736 225.49 31.016 224.882 32.744H236.738C236.77 32.488 236.786 32.312 236.786 32.216C236.818 30.808 236.386 29.688 235.49 28.856C234.594 28.024 233.41 27.608 231.938 27.608ZM258.075 47L263.979 13.4H276.123C278.491 13.4 280.443 13.816 281.979 14.648C283.515 15.448 284.651 16.52 285.387 17.864C286.155 19.208 286.539 20.664 286.539 22.232C286.539 24.92 285.771 27.192 284.235 29.048C282.731 30.904 280.699 32.216 278.139 32.984L282.603 47H275.883L271.995 33.752H266.571L264.219 47H258.075ZM267.339 29.24H273.147C275.291 29.24 277.003 28.68 278.283 27.56C279.563 26.44 280.203 24.888 280.203 22.904C280.203 21.624 279.787 20.584 278.955 19.784C278.155 18.952 276.843 18.536 275.019 18.536H269.211L267.339 29.24ZM296.764 47.576C294.268 47.576 292.348 46.904 291.004 45.56C289.66 44.184 288.988 42.216 288.988 39.656C288.988 38.76 289.084 37.752 289.276 36.632L291.676 23.192H297.772L295.516 36.056C295.452 36.44 295.404 36.808 295.372 37.16C295.34 37.48 295.324 37.784 295.324 38.072C295.324 40.952 296.732 42.392 299.548 42.392C301.276 42.392 302.796 41.8 304.108 40.616C305.42 39.4 306.268 37.752 306.652 35.672L308.812 23.192H314.956L310.78 47H305.356L305.548 43.064C304.556 44.44 303.308 45.544 301.804 46.376C300.3 47.176 298.62 47.576 296.764 47.576ZM317.134 47L321.31 23.192H326.734L326.59 27.128C327.582 25.752 328.83 24.664 330.334 23.864C331.838 23.032 333.518 22.616 335.374 22.616C337.838 22.616 339.742 23.304 341.086 24.68C342.462 26.024 343.15 27.976 343.15 30.536C343.15 31.432 343.054 32.44 342.862 33.56L340.462 47H334.318L336.622 34.136C336.654 33.752 336.686 33.4 336.718 33.08C336.782 32.728 336.814 32.408 336.814 32.12C336.814 29.24 335.39 27.8 332.542 27.8C330.846 27.8 329.342 28.408 328.03 29.624C326.718 30.808 325.87 32.44 325.486 34.52L323.278 47H317.134ZM346.384 47L350.56 23.192H355.984L355.84 27.128C356.832 25.752 358.08 24.664 359.584 23.864C361.088 23.032 362.768 22.616 364.624 22.616C367.088 22.616 368.992 23.304 370.336 24.68C371.712 26.024 372.4 27.976 372.4 30.536C372.4 31.432 372.304 32.44 372.112 33.56L369.712 47H363.568L365.872 34.136C365.904 33.752 365.936 33.4 365.968 33.08C366.032 32.728 366.064 32.408 366.064 32.12C366.064 29.24 364.64 27.8 361.792 27.8C360.096 27.8 358.592 28.408 357.28 29.624C355.968 30.808 355.12 32.44 354.736 34.52L352.528 47H346.384ZM384.418 19.64C383.298 19.64 382.37 19.304 381.634 18.632C380.93 17.928 380.578 17.064 380.578 16.04C380.578 15.016 380.93 14.168 381.634 13.496C382.37 12.792 383.298 12.44 384.418 12.44C385.538 12.44 386.45 12.792 387.154 13.496C387.89 14.168 388.258 15.016 388.258 16.04C388.258 17.064 387.89 17.928 387.154 18.632C386.45 19.304 385.538 19.64 384.418 19.64ZM375.874 47L380.05 23.192H386.194L382.018 47H375.874ZM388.572 47L392.748 23.192H398.172L398.028 27.128C399.02 25.752 400.268 24.664 401.772 23.864C403.276 23.032 404.956 22.616 406.812 22.616C409.276 22.616 411.18 23.304 412.524 24.68C413.9 26.024 414.588 27.976 414.588 30.536C414.588 31.432 414.492 32.44 414.3 33.56L411.9 47H405.756L408.06 34.136C408.092 33.752 408.124 33.4 408.156 33.08C408.22 32.728 408.252 32.408 408.252 32.12C408.252 29.24 406.828 27.8 403.98 27.8C402.284 27.8 400.78 28.408 399.468 29.624C398.156 30.808 397.308 32.44 396.924 34.52L394.716 47H388.572ZM429.054 39.896C427.902 39.896 426.846 39.768 425.886 39.512L424.062 41.048C424.638 41.4 425.358 41.688 426.222 41.912C427.086 42.104 428.318 42.264 429.918 42.392C432.958 42.648 435.118 43.352 436.398 44.504C437.678 45.624 438.318 47.064 438.318 48.824C438.318 50.648 437.774 52.248 436.686 53.624C435.63 55.032 434.174 56.136 432.318 56.936C430.462 57.736 428.334 58.136 425.934 58.136C422.862 58.136 420.398 57.576 418.542 56.456C416.686 55.336 415.758 53.672 415.758 51.464C415.758 50.088 416.126 48.824 416.862 47.672C417.63 46.552 418.686 45.544 420.03 44.648C418.974 44.104 418.158 43.496 417.582 42.824L417.774 41.72L422.526 37.544C421.31 36.296 420.702 34.728 420.702 32.84C420.702 30.952 421.214 29.24 422.238 27.704C423.262 26.136 424.622 24.904 426.318 24.008C428.046 23.08 429.966 22.616 432.078 22.616C433.422 22.616 434.638 22.808 435.726 23.192H444.75L444.078 26.936L439.95 27.224C440.206 27.992 440.334 28.808 440.334 29.672C440.334 31.592 439.822 33.32 438.798 34.856C437.806 36.392 436.446 37.624 434.718 38.552C433.022 39.448 431.134 39.896 429.054 39.896ZM429.87 35.24C431.374 35.24 432.606 34.792 433.566 33.896C434.558 33 435.054 31.848 435.054 30.44C435.054 29.448 434.702 28.68 433.998 28.136C433.294 27.592 432.382 27.32 431.262 27.32C429.726 27.32 428.462 27.784 427.47 28.712C426.51 29.608 426.03 30.744 426.03 32.12C426.03 33.112 426.366 33.88 427.038 34.424C427.742 34.968 428.686 35.24 429.87 35.24ZM421.566 50.264C421.566 51.32 422.03 52.12 422.958 52.664C423.918 53.208 425.166 53.48 426.702 53.48C428.334 53.48 429.71 53.128 430.83 52.424C431.982 51.752 432.558 50.776 432.558 49.496C432.558 48.76 432.27 48.12 431.694 47.576C431.15 47.032 430.062 46.712 428.43 46.616C427.118 46.52 425.886 46.36 424.734 46.136C423.646 46.68 422.846 47.304 422.334 48.008C421.822 48.744 421.566 49.496 421.566 50.264Z" fill="#FF6F4B"/>
<path d="M19.984 47.576C17.232 47.576 14.88 46.968 12.928 45.752C10.976 44.504 9.472 42.824 8.416 40.712C7.36 38.6 6.832 36.2 6.832 33.512C6.832 30.472 7.328 27.688 8.32 25.16C9.312 22.632 10.704 20.456 12.496 18.632C14.32 16.776 16.448 15.352 18.88 14.36C21.312 13.336 23.984 12.824 26.896 12.824C30.832 12.824 33.968 13.768 36.304 15.656C38.64 17.544 39.888 20.152 40.048 23.48H33.184C32.96 21.912 32.24 20.696 31.024 19.832C29.84 18.936 28.176 18.488 26.032 18.488C23.504 18.488 21.264 19.112 19.312 20.36C17.392 21.576 15.888 23.272 14.8 25.448C13.712 27.624 13.168 30.152 13.168 33.032C13.168 35.848 13.904 38.072 15.376 39.704C16.848 41.304 18.896 42.104 21.52 42.104C24.56 42.104 26.992 41.288 28.816 39.656C30.672 37.992 31.984 35.816 32.752 33.128H24.304L25.12 28.52H39.76L36.496 47H30.928L31.12 42.584C29.776 44.184 28.224 45.416 26.464 46.28C24.704 47.144 22.544 47.576 19.984 47.576ZM51.1525 19.64C50.0325 19.64 49.1045 19.304 48.3685 18.632C47.6645 17.928 47.3125 17.064 47.3125 16.04C47.3125 15.016 47.6645 14.168 48.3685 13.496C49.1045 12.792 50.0325 12.44 51.1525 12.44C52.2725 12.44 53.1845 12.792 53.8885 13.496C54.6245 14.168 54.9925 15.016 54.9925 16.04C54.9925 17.064 54.6245 17.928 53.8885 18.632C53.1845 19.304 52.2725 19.64 51.1525 19.64ZM42.6085 47L46.7845 23.192H52.9285L48.7525 47H42.6085ZM55.306 47L59.482 23.192H65.002L64.81 27.512C65.93 26.04 67.306 24.856 68.938 23.96C70.602 23.064 72.442 22.616 74.458 22.616L73.306 29.096H71.626C69.578 29.096 67.818 29.576 66.346 30.536C64.874 31.464 63.914 33.192 63.466 35.72L61.45 47H55.306ZM74.6174 47L80.7614 12.44H86.9054L80.7614 47H74.6174ZM97.1181 47.576C94.9421 47.576 93.0861 47.208 91.5501 46.472C90.0461 45.736 88.9101 44.728 88.1421 43.448C87.3741 42.168 87.0541 40.712 87.1821 39.08H93.3261C93.2941 40.2 93.6621 41.112 94.4301 41.816C95.1981 42.52 96.3501 42.872 97.8861 42.872C99.2301 42.872 100.27 42.584 101.006 42.008C101.774 41.432 102.158 40.696 102.158 39.8C102.158 39 101.758 38.424 100.958 38.072C100.158 37.688 99.1341 37.352 97.8861 37.064C96.5741 36.744 95.2941 36.328 94.0461 35.816C92.7981 35.304 91.7581 34.632 90.9261 33.8C90.1261 32.968 89.7261 31.896 89.7261 30.584C89.7261 29.048 90.1741 27.688 91.0701 26.504C91.9981 25.288 93.2621 24.344 94.8621 23.672C96.4621 22.968 98.3021 22.616 100.382 22.616C103.198 22.616 105.422 23.288 107.054 24.632C108.686 25.976 109.47 27.8 109.406 30.104H103.502C103.47 29.272 103.102 28.6 102.398 28.088C101.726 27.576 100.83 27.32 99.7101 27.32C98.5581 27.32 97.6141 27.576 96.8781 28.088C96.1741 28.568 95.8221 29.176 95.8221 29.912C95.8221 30.616 96.2381 31.16 97.0701 31.544C97.9341 31.896 99.0541 32.232 100.43 32.552C101.934 32.904 103.278 33.336 104.462 33.848C105.678 34.36 106.638 35.032 107.342 35.864C108.078 36.664 108.446 37.72 108.446 39.032C108.446 40.76 107.95 42.264 106.958 43.544C105.966 44.824 104.606 45.816 102.878 46.52C101.182 47.224 99.2621 47.576 97.1181 47.576ZM140.172 47.576C137.42 47.576 135.068 46.968 133.116 45.752C131.164 44.504 129.66 42.824 128.604 40.712C127.548 38.6 127.02 36.2 127.02 33.512C127.02 30.472 127.516 27.688 128.508 25.16C129.5 22.632 130.892 20.456 132.684 18.632C134.508 16.776 136.636 15.352 139.068 14.36C141.5 13.336 144.172 12.824 147.084 12.824C151.02 12.824 154.156 13.768 156.492 15.656C158.828 17.544 160.076 20.152 160.236 23.48H153.372C153.148 21.912 152.428 20.696 151.212 19.832C150.028 18.936 148.364 18.488 146.22 18.488C143.692 18.488 141.452 19.112 139.5 20.36C137.58 21.576 136.076 23.272 134.988 25.448C133.9 27.624 133.356 30.152 133.356 33.032C133.356 35.848 134.092 38.072 135.564 39.704C137.036 41.304 139.084 42.104 141.708 42.104C144.748 42.104 147.18 41.288 149.004 39.656C150.86 37.992 152.172 35.816 152.94 33.128H144.492L145.308 28.52H159.948L156.684 47H151.116L151.307 42.584C149.964 44.184 148.412 45.416 146.652 46.28C144.892 47.144 142.732 47.576 140.172 47.576ZM174.124 47.576C172.044 47.576 170.22 47.112 168.652 46.184C167.084 45.256 165.852 44.008 164.956 42.44C164.092 40.84 163.66 39.016 163.66 36.968C163.66 34.952 164.012 33.08 164.716 31.352C165.452 29.592 166.46 28.056 167.74 26.744C169.052 25.432 170.572 24.424 172.3 23.72C174.028 22.984 175.884 22.616 177.868 22.616C179.98 22.616 181.82 23.064 183.388 23.96C184.988 24.856 186.236 26.088 187.132 27.656C188.028 29.224 188.476 31.048 188.476 33.128C188.476 35.176 188.108 37.08 187.372 38.84C186.636 40.568 185.612 42.088 184.3 43.4C183.02 44.712 181.5 45.736 179.74 46.472C178.012 47.208 176.14 47.576 174.124 47.576ZM174.94 42.248C176.316 42.248 177.548 41.864 178.636 41.096C179.724 40.328 180.588 39.288 181.228 37.976C181.868 36.632 182.188 35.128 182.188 33.464C182.188 31.704 181.692 30.344 180.7 29.384C179.74 28.424 178.572 27.944 177.196 27.944C175.852 27.944 174.62 28.328 173.5 29.096C172.412 29.864 171.548 30.92 170.908 32.264C170.268 33.576 169.948 35.064 169.948 36.728C169.948 38.488 170.428 39.848 171.388 40.808C172.38 41.768 173.564 42.248 174.94 42.248ZM191.712 47L195.888 23.192H201.312L201.168 27.128C202.16 25.752 203.408 24.664 204.912 23.864C206.416 23.032 208.096 22.616 209.952 22.616C212.416 22.616 214.32 23.304 215.664 24.68C217.04 26.024 217.728 27.976 217.728 30.536C217.728 31.432 217.632 32.44 217.44 33.56L215.04 47H208.896L211.2 34.136C211.232 33.752 211.264 33.4 211.296 33.08C211.36 32.728 211.392 32.408 211.392 32.12C211.392 29.24 209.968 27.8 207.12 27.8C205.424 27.8 203.92 28.408 202.608 29.624C201.296 30.808 200.448 32.44 200.064 34.52L197.856 47H191.712ZM232.386 47.576C229.218 47.576 226.69 46.664 224.802 44.84C222.946 43.016 222.018 40.552 222.018 37.448C222.018 35.432 222.37 33.528 223.074 31.736C223.778 29.944 224.786 28.376 226.098 27.032C227.41 25.656 228.962 24.584 230.754 23.816C232.578 23.016 234.578 22.616 236.754 22.616C238.866 22.616 240.674 23.032 242.178 23.864C243.682 24.664 244.834 25.784 245.634 27.224C246.466 28.632 246.882 30.248 246.882 32.072C246.882 32.84 246.802 33.64 246.642 34.472C246.514 35.272 246.354 35.976 246.162 36.584H228.066C228.066 36.84 228.066 37.112 228.066 37.4C228.066 39 228.546 40.264 229.506 41.192C230.466 42.088 231.714 42.536 233.25 42.536C234.466 42.536 235.538 42.264 236.466 41.72C237.426 41.144 238.21 40.408 238.818 39.512H245.058C244.322 41.048 243.314 42.424 242.034 43.64C240.786 44.856 239.33 45.816 237.666 46.52C236.034 47.224 234.274 47.576 232.386 47.576ZM235.938 27.608C234.466 27.608 233.074 28.04 231.762 28.904C230.45 29.736 229.49 31.016 228.882 32.744H240.738C240.77 32.488 240.786 32.312 240.786 32.216C240.818 30.808 240.386 29.688 239.49 28.856C238.594 28.024 237.41 27.608 235.938 27.608ZM262.075 47L267.979 13.4H280.123C282.491 13.4 284.443 13.816 285.979 14.648C287.515 15.448 288.651 16.52 289.387 17.864C290.155 19.208 290.539 20.664 290.539 22.232C290.539 24.92 289.771 27.192 288.235 29.048C286.731 30.904 284.699 32.216 282.139 32.984L286.603 47H279.883L275.995 33.752H270.571L268.219 47H262.075ZM271.339 29.24H277.147C279.291 29.24 281.003 28.68 282.283 27.56C283.563 26.44 284.203 24.888 284.203 22.904C284.203 21.624 283.787 20.584 282.955 19.784C282.155 18.952 280.843 18.536 279.019 18.536H273.211L271.339 29.24ZM300.764 47.576C298.268 47.576 296.348 46.904 295.004 45.56C293.66 44.184 292.988 42.216 292.988 39.656C292.988 38.76 293.084 37.752 293.276 36.632L295.676 23.192H301.772L299.516 36.056C299.452 36.44 299.404 36.808 299.372 37.16C299.34 37.48 299.324 37.784 299.324 38.072C299.324 40.952 300.732 42.392 303.548 42.392C305.276 42.392 306.796 41.8 308.108 40.616C309.42 39.4 310.268 37.752 310.652 35.672L312.812 23.192H318.956L314.78 47H309.356L309.548 43.064C308.556 44.44 307.308 45.544 305.804 46.376C304.3 47.176 302.62 47.576 300.764 47.576ZM321.134 47L325.31 23.192H330.734L330.59 27.128C331.582 25.752 332.83 24.664 334.334 23.864C335.838 23.032 337.518 22.616 339.374 22.616C341.838 22.616 343.742 23.304 345.086 24.68C346.462 26.024 347.15 27.976 347.15 30.536C347.15 31.432 347.054 32.44 346.862 33.56L344.462 47H338.318L340.622 34.136C340.654 33.752 340.686 33.4 340.718 33.08C340.782 32.728 340.814 32.408 340.814 32.12C340.814 29.24 339.39 27.8 336.542 27.8C334.846 27.8 333.342 28.408 332.03 29.624C330.718 30.808 329.87 32.44 329.486 34.52L327.278 47H321.134ZM350.384 47L354.56 23.192H359.984L359.84 27.128C360.832 25.752 362.08 24.664 363.584 23.864C365.088 23.032 366.768 22.616 368.624 22.616C371.088 22.616 372.992 23.304 374.336 24.68C375.712 26.024 376.4 27.976 376.4 30.536C376.4 31.432 376.304 32.44 376.112 33.56L373.712 47H367.568L369.872 34.136C369.904 33.752 369.936 33.4 369.968 33.08C370.032 32.728 370.064 32.408 370.064 32.12C370.064 29.24 368.64 27.8 365.792 27.8C364.096 27.8 362.592 28.408 361.28 29.624C359.968 30.808 359.12 32.44 358.736 34.52L356.528 47H350.384ZM388.418 19.64C387.298 19.64 386.37 19.304 385.634 18.632C384.93 17.928 384.578 17.064 384.578 16.04C384.578 15.016 384.93 14.168 385.634 13.496C386.37 12.792 387.298 12.44 388.418 12.44C389.538 12.44 390.45 12.792 391.154 13.496C391.89 14.168 392.258 15.016 392.258 16.04C392.258 17.064 391.89 17.928 391.154 18.632C390.45 19.304 389.538 19.64 388.418 19.64ZM379.874 47L384.05 23.192H390.194L386.018 47H379.874ZM392.572 47L396.748 23.192H402.172L402.028 27.128C403.02 25.752 404.268 24.664 405.772 23.864C407.276 23.032 408.956 22.616 410.812 22.616C413.276 22.616 415.18 23.304 416.524 24.68C417.9 26.024 418.588 27.976 418.588 30.536C418.588 31.432 418.492 32.44 418.3 33.56L415.9 47H409.756L412.06 34.136C412.092 33.752 412.124 33.4 412.156 33.08C412.22 32.728 412.252 32.408 412.252 32.12C412.252 29.24 410.828 27.8 407.98 27.8C406.284 27.8 404.78 28.408 403.468 29.624C402.156 30.808 401.308 32.44 400.924 34.52L398.716 47H392.572ZM433.054 39.896C431.902 39.896 430.846 39.768 429.886 39.512L428.062 41.048C428.638 41.4 429.358 41.688 430.222 41.912C431.086 42.104 432.318 42.264 433.918 42.392C436.958 42.648 439.118 43.352 440.398 44.504C441.678 45.624 442.318 47.064 442.318 48.824C442.318 50.648 441.774 52.248 440.686 53.624C439.63 55.032 438.174 56.136 436.318 56.936C434.462 57.736 432.334 58.136 429.934 58.136C426.862 58.136 424.398 57.576 422.542 56.456C420.686 55.336 419.758 53.672 419.758 51.464C419.758 50.088 420.126 48.824 420.862 47.672C421.63 46.552 422.686 45.544 424.03 44.648C422.974 44.104 422.158 43.496 421.582 42.824L421.774 41.72L426.526 37.544C425.31 36.296 424.702 34.728 424.702 32.84C424.702 30.952 425.214 29.24 426.238 27.704C427.262 26.136 428.622 24.904 430.318 24.008C432.046 23.08 433.966 22.616 436.078 22.616C437.422 22.616 438.638 22.808 439.726 23.192H448.75L448.078 26.936L443.95 27.224C444.206 27.992 444.334 28.808 444.334 29.672C444.334 31.592 443.822 33.32 442.798 34.856C441.806 36.392 440.446 37.624 438.718 38.552C437.022 39.448 435.134 39.896 433.054 39.896ZM433.87 35.24C435.374 35.24 436.606 34.792 437.566 33.896C438.558 33 439.054 31.848 439.054 30.44C439.054 29.448 438.702 28.68 437.998 28.136C437.294 27.592 436.382 27.32 435.262 27.32C433.726 27.32 432.462 27.784 431.47 28.712C430.51 29.608 430.03 30.744 430.03 32.12C430.03 33.112 430.366 33.88 431.038 34.424C431.742 34.968 432.686 35.24 433.87 35.24ZM425.566 50.264C425.566 51.32 426.03 52.12 426.958 52.664C427.918 53.208 429.166 53.48 430.702 53.48C432.334 53.48 433.71 53.128 434.83 52.424C435.982 51.752 436.558 50.776 436.558 49.496C436.558 48.76 436.27 48.12 435.694 47.576C435.15 47.032 434.062 46.712 432.43 46.616C431.118 46.52 429.886 46.36 428.734 46.136C427.646 46.68 426.846 47.304 426.334 48.008C425.822 48.744 425.566 49.496 425.566 50.264Z" fill="#F488C7"/>
</svg>
